# xmcd
#
# Track frame offsets: 
#        150
#        34107
#        54929
#        71290
#        91501
#        115401
#        135980
#        169473
#        192508
#        219667
#
# Disc length: 3480 seconds
#
# Revision: 0
# Processed by: cddbd v1.5.2PL0 Copyright (c) Steve Scherf et al.
# Submitted via: ExactAudioCopyFreeDBPlugin 1.0
#
DISCID=860d960a
DTITLE=Junior Wells - Sexy Bitch -3- Reelin' and Rockin'
DYEAR=2018
DGENRE=Blues
TTITLE0=Messin' With The Kid
TTITLE1=Take Off Your Shoes
TTITLE2=Little By Little
TTITLE3=Hoodoo Man Blues
TTITLE4=The Train
TTITLE5=You Gotta Love Her With A Feeling
TTITLE6=Sweet Sixteen
TTITLE7=What My Momma Told Me
TTITLE8=Little Red Rooster
TTITLE9=Today I Started Loving You Again
EXTD=
EXTT0=
EXTT1=
EXTT2=
EXTT3=
EXTT4=
EXTT5=
EXTT6=
EXTT7=
EXTT8=
EXTT9=
PLAYORDER=
